<svg width="20" height="20" viewBox="0 0 20 20" fill="none" xmlns="http://www.w3.org/2000/svg">
<path d="M9.37197 2.025C10.9871 1.89766 12.6029 2.26372 14.0054 3.07475C15.408 3.88577 16.5312 5.10353 17.2265 6.5669C17.9219 8.03026 18.1565 9.67026 17.8993 11.2699C17.6422 12.8695 16.9055 14.3534 15.7866 15.5251C14.6677 16.6969 13.2194 17.5013 11.6333 17.8319C10.0473 18.1625 8.39819 18.0038 6.90431 17.3767C5.41043 16.7496 4.14216 15.6837 3.26731 14.3201C2.39246 12.9564 1.95226 11.3593 2.00497 9.74C2.00792 9.64151 2.03025 9.54456 2.07067 9.4547C2.11109 9.36483 2.16881 9.28381 2.24055 9.21626C2.31228 9.1487 2.39662 9.09594 2.48874 9.06098C2.58087 9.02602 2.67898 9.00954 2.77747 9.0125C2.87596 9.01545 2.9729 9.03778 3.06277 9.0782C3.15263 9.11862 3.23365 9.17634 3.30121 9.24808C3.36876 9.31981 3.42153 9.40415 3.45649 9.49627C3.49145 9.5884 3.50792 9.68651 3.50497 9.785C3.45429 11.3179 3.94727 12.8193 4.89673 14.0237C5.84619 15.2282 7.19098 16.0581 8.69329 16.3668C10.1956 16.6754 11.7587 16.4429 13.1061 15.7104C14.4535 14.9778 15.4985 13.7924 16.0563 12.3637C16.6141 10.9351 16.6487 9.35517 16.1541 7.90343C15.6594 6.45169 14.6674 5.22161 13.3534 4.43071C12.0393 3.63981 10.488 3.33903 8.97356 3.58156C7.45916 3.82408 6.0793 4.59429 5.07797 5.756L4.87397 6.004H7.25297L7.35497 6.012C7.53448 6.0367 7.69898 6.12555 7.81806 6.26213C7.93714 6.39872 8.00274 6.57379 8.00274 6.755C8.00274 6.9362 7.93714 7.11128 7.81806 7.24786C7.69898 7.38444 7.53448 7.4733 7.35497 7.498L7.25297 7.505H3.25297L3.15097 7.498C2.98882 7.47573 2.8384 7.40103 2.72267 7.2853C2.60693 7.16956 2.53223 7.01915 2.50997 6.857L2.50297 6.755V2.755L2.50997 2.653C2.53223 2.49085 2.60693 2.34043 2.72267 2.22469C2.8384 2.10896 2.98882 2.03426 3.15097 2.012L3.25297 2.005L3.35497 2.012C3.51712 2.03426 3.66754 2.10896 3.78327 2.22469C3.899 2.34043 3.9737 2.49085 3.99597 2.653L4.00297 2.755L4.00197 4.708C5.37451 3.14894 7.30105 2.18675 9.37197 2.026V2.025ZM9.74997 6.004L9.85197 6.011C10.0141 6.03326 10.1645 6.10796 10.2803 6.22369C10.396 6.33943 10.4707 6.48985 10.493 6.652L10.5 6.754V9.999L12.25 10L12.352 10.007C12.5322 10.0309 12.6977 10.1195 12.8175 10.2562C12.9374 10.393 13.0034 10.5687 13.0034 10.7505C13.0034 10.9323 12.9374 11.108 12.8175 11.2448C12.6977 11.3815 12.5322 11.4701 12.352 11.494L12.25 11.5H9.74997L9.64797 11.494C9.48567 11.4717 9.33514 11.3968 9.21939 11.2809C9.10364 11.165 9.02903 11.0143 9.00697 10.852L8.99997 10.75V6.754L9.00697 6.652C9.02923 6.48985 9.10393 6.33943 9.21967 6.22369C9.3354 6.10796 9.48582 6.03326 9.64797 6.011L9.74997 6.004Z" fill="#6B6B6B"/>
</svg>
