<svg width="20" height="20" viewBox="0 0 20 20" fill="none" xmlns="http://www.w3.org/2000/svg">
<path d="M5.75 16.8571H19.75V18.8571H3.75V2.85712H5.75V16.8571ZM8.25 15.8571C8.04725 15.8575 7.84651 15.8168 7.65993 15.7375C7.47335 15.6581 7.30479 15.5418 7.16445 15.3954C7.0241 15.2491 6.91487 15.0758 6.84337 14.8861C6.77187 14.6964 6.73957 14.4941 6.74844 14.2916C6.7573 14.089 6.80714 13.8903 6.89494 13.7076C6.98274 13.5248 7.10668 13.3617 7.25927 13.2282C7.41186 13.0947 7.58994 12.9935 7.78274 12.9308C7.97553 12.868 8.17906 12.845 8.381 12.8631L9.993 10.1761C9.8456 9.94975 9.76207 9.68779 9.75121 9.41788C9.74036 9.14798 9.80259 8.88015 9.93133 8.64268C10.0601 8.40522 10.2506 8.20692 10.4827 8.06874C10.7148 7.93055 10.9799 7.85761 11.25 7.85761C11.5201 7.85761 11.7852 7.93055 12.0173 8.06874C12.2494 8.20692 12.4399 8.40522 12.5687 8.64268C12.6974 8.88015 12.7596 9.14798 12.7488 9.41788C12.7379 9.68779 12.6544 9.94975 12.507 10.1761L14.119 12.8631C14.1955 12.8562 14.2724 12.8556 14.349 12.8611L17.011 8.20312C16.8197 7.92291 16.7291 7.58612 16.7539 7.24774C16.7787 6.90937 16.9174 6.58939 17.1475 6.34006C17.3776 6.09073 17.6855 5.92678 18.0208 5.87497C18.3561 5.82316 18.6991 5.88655 18.9937 6.0548C19.2883 6.22305 19.5172 6.48621 19.643 6.80132C19.7687 7.11643 19.784 7.46487 19.6862 7.78976C19.5884 8.11464 19.3833 8.39677 19.1045 8.59008C18.8257 8.7834 18.4895 8.87647 18.151 8.85412L15.489 13.5121C15.6419 13.7364 15.7311 13.9981 15.7471 14.2691C15.763 14.5401 15.7051 14.8104 15.5795 15.0511C15.4539 15.2918 15.2653 15.4939 15.0338 15.6358C14.8024 15.7778 14.5368 15.8542 14.2653 15.8571C13.9938 15.8599 13.7266 15.789 13.4923 15.6519C13.2579 15.5148 13.0652 15.3167 12.9346 15.0787C12.804 14.8406 12.7405 14.5716 12.7507 14.3003C12.761 14.029 12.8448 13.7656 12.993 13.5381L11.381 10.8511C11.2939 10.8592 11.2061 10.8592 11.119 10.8511L9.507 13.5381C9.65453 13.7645 9.73817 14.0265 9.7491 14.2965C9.76002 14.5665 9.69781 14.8344 9.56905 15.0719C9.44029 15.3095 9.24976 15.5078 9.01758 15.646C8.7854 15.7842 8.5202 15.8572 8.25 15.8571V15.8571Z" fill="#6B6B6B"/>
</svg>
